<svg xmlns="http://www.w3.org/2000/svg" viewBox="0 0 640 400" width="640" height="400" role="img" xmlns:c2pa="http://c2pa.org/manifest"><metadata><c2pa:manifest>AAAWgmp1bWIAAAAeanVtZGMycGEAEQAQgAAAqgA4m3EDYzJwYQAAABZcanVtYgAAAEdqdW1kYzJtYQARABCAAACqADibcQN1cm46YzJwYTozNmVmZTczYi1lMmMyLTRiOTEtOWVlOS1mMzk3NTYxOWYyOTQAAAADl2p1bWIAAAApanVtZGMyYXMAEQAQgAAAqgA4m3EDYzJwYS5hc3NlcnRpb25zAAAAALxqdW1iAAAARGp1bWRjYm9yABEAEIAAAKoAOJtxE2MycGEuaW5ncmVkaWVudC52MwAAAAAYYzJzaMFTTfxvuxXDQdfW0JuUO5MAAABwY2JvcqNpZGM6Zm9ybWF0bWltYWdlL3N2Zyt4bWxqaW5zdGFuY2VJRHgseG1wOmlpZDphY2JjZmY3Ni01MTVjLTQ4MjYtOTQzNC03NWUzYjkzNGJkZDJscmVsYXRpb25zaGlwaHBhcmVudE9mAAAB4mp1bWIAAABBanVtZGNib3IAEQAQgAAAqgA4m3ETYzJwYS5hY3Rpb25zLnYyAAAAABhjMnNo7noR9Jhs1zOXAWyr2U99UwAAAZljYm9yomdhY3Rpb25zgqJmYWN0aW9ua2MycGEub3BlbmVkanBhcmFtZXRlcnOha2luZ3JlZGllbnRzgaJjdXJseC1zZWxmI2p1bWJmPWMycGEuYXNzZXJ0aW9ucy9jMnBhLmluZ3JlZGllbnQudjNkaGFzaFggGsKm9gItuMAwstVRlprLCyT+qD8/iWT47vBUqv4lUD+kZmFjdGlvbngdY29tLmFudGhyb3BpYy5jbGF1ZGUucHJvdmlkZWRqcGFyYW1ldGVyc6F4H2NvbS5hbnRocm9waWMub3JpZ2luLWNvbmZpZGVuY2VndW5rbm93bmtkZXNjcmlwdGlvbnhmQ2xhdWRlIHByb3ZpZGVkIHRoaXMgZmlsZSBhdCB0aGUgcmVxdWVzdCBvZiBhIHVzZXIgYW5kIG1heSBoYXZlIGNyZWF0ZWQgb3IgbW9kaWZpZWQgdGhlIGZpbGUgY29udGVudHMubXNvZnR3YXJlQWdlbnShZG5hbWVmQ2xhdWRlcmFsbEFjdGlvbnNJbmNsdWRlZPUAAADIanVtYgAAAEBqdW1kY2JvcgARABCAAACqADibcRNjMnBhLmhhc2guZGF0YQAAAAAYYzJzaH7kKZTtex7GVDaMWRuKGSoAAACAY2JvcqVjYWxnZnNoYTI1NmNwYWRNAAAAAAAAAAAAAAAAAGRoYXNoWCDpoFS9HUQBTZ6N5ZqpnjWYYy4SIIoLcust6Mqn937ur2RuYW1lbmp1bWJmIG1hbmlmZXN0amV4Y2x1c2lvbnOBomVzdGFydBihZmxlbmd0aBkeBAAAAj5qdW1iAAAAJ2p1bWRjMmNsABEAEIAAAKoAOJtxA2MycGEuY2xhaW0udjIAAAACD2Nib3KlY2FsZ2ZzaGEyNTZpc2lnbmF0dXJleE1zZWxmI2p1bWJmPS9jMnBhL3VybjpjMnBhOjM2ZWZlNzNiLWUyYzItNGI5MS05ZWU5LWYzOTc1NjE5ZjI5NC9jMnBhLnNpZ25hdHVyZWppbnN0YW5jZUlEeCx4bXA6aWlkOjA3ZDc5YWY2LWEzZDItNDFhOC1hMjk4LWFhZjhmOGU5ZTJiYnJjcmVhdGVkX2Fzc2VydGlvbnODomN1cmx4LXNlbGYjanVtYmY9YzJwYS5hc3NlcnRpb25zL2MycGEuaW5ncmVkaWVudC52M2RoYXNoWCAawqb2Ai24wDCy1VGWmssLJP6oPz+JZPju8FSq/iVQP6JjdXJseCpzZWxmI2p1bWJmPWMycGEuYXNzZXJ0aW9ucy9jMnBhLmFjdGlvbnMudjJkaGFzaFgg9vE6WpLHq/gSxhD2f+bQs87MmScJeHkIFWjeysy0bTiiY3VybHgpc2VsZiNqdW1iZj1jMnBhLmFzc2VydGlvbnMvYzJwYS5oYXNoLmRhdGFkaGFzaFgglX2FOGpDTzN1f9m7nCprLM3REdL+k+tDQ4pde4kb+i10Y2xhaW1fZ2VuZXJhdG9yX2luZm+jZG5hbWVvQW50aHJvcGljIEZpbGVzZ3ZlcnNpb25lMS4wLjBrc3BlY1ZlcnNpb25lMi40LjAAABA4anVtYgAAAChqdW1kYzJjcwARABCAAACqADibcQNjMnBhLnNpZ25hdHVyZQAAABAIY2JvctKEWQISogEmGCFZAgowggIGMIIBjaADAgECAhRA5aAK7sI50L64g/oGQgU9Z1UTADAKBggqhkjOPQQDAzBJMRcwFQYDVQQKEw5BbnRocm9waWMsIFBCQzEuMCwGA1UEAxMlQW50aHJvcGljIENvbnRlbnQgQ3JlZGVudGlhbHMgUm9vdCBDQTAeFw0yNjA4MDcxODQzNTZaFw0yODA4MDYxOTQzNTZaMEQxFzAVBgNVBAoTDkFudGhyb3BpYywgUEJDMSkwJwYDVQQDEyBBbnRocm9waWMgQ2xhdWRlIENvbnRlbnQgU2lnbmluZzBZMBMGByqGSM49AgEGCCqGSM49AwEHA0IABJh6CmvLUBgFFNU0vUKlOVtE6djd17L5SuwX0LemFisBM3dkd/3cyjxFA3Qo5S46fX0/ihY0VZ7mfb9KF703t5OjWDBWMA4GA1UdDwEB/wQEAwIHgDAVBgNVHSUEDjAMBgorBgEEAYPoXgIBMAwGA1UdEwEB/wQCMAAwHwYDVR0jBBgwFoAUzlHiBIFOZFsj+OPEz5o+nMHXXMIwCgYIKoZIzj0EAwMDZwAwZAIwMXMdFJ4BetLLVY7ORuE9noqbbAZOZn/aArXyTwFAZfKrPzxF2vPoJNf1+UCdg1XGAjBwX1zd9WGqYkqmL5SFqw1QySjr1zJfpJM9+1rdDwSPLMOPOjKuiXjoU/pUUeG9RwmhY3BhZFkNngAAAAAAAAAAAAAAAAAAAAAAAAAAAAAAAAAAAAAAAAAAAAAAAAAAAAAAAAAAAAAAAAAAAAAAAAAAAAAAAAAAAAAAAAAAAAAAAAAAAAAAAAAAAAAAAAAAAAAAAAAAAAAAAAAAAAAAAAAAAAAAAAAAAAAAAAAAAAAAAAAAAAAAAAAAAAAAAAAAAAAAAAAAAAAAAAAAAAAAAAAAAAAAAAAAAAAAAAAAAAAAAAAAAAAAAAAAAAAAAAAAAAAAAAAAAAAAAAAAAAAAAAAAAAAAAAAAAAAAAAAAAAAAAAAAAAAAAAAAAAAAAAAAAAAAAAAAAAAAAAAAAAAAAAAAAAAAAAAAAAAAAAAAAAAAAAAAAAAAAAAAAAAAAAAAAAAAAAAAAAAAAAAAAAAAAAAAAAAAAAAAAAAAAAAAAAAAAAAAAAAAAAAAAAAAAAAAAAAAAAAAAAAAAAAAAAAAAAAAAAAAAAAAAAAAAAAAAAAAAAAAAAAAAAAAAAAAAAAAAAAAAAAAAAAAAAAAAAAAAAAAAAAAAAAAAAAAAAAAAAAAAAAAAAAAAAAAAAAAAAAAAAAAAAAAAAAAAAAAAAAAAAAAAAAAAAAAAAAAAAAAAAAAAAAAAAAAAAAAAAAAAAAAAAAAAAAAAAAAAAAAAAAAAAAAAAAAAAAAAAAAAAAAAAAAAAAAAAAAAAAAAAAAAAAAAAAAAAAAAAAAAAAAAAAAAAAAAAAAAAAAAAAAAAAAAAAAAAAAAAAAAAAAAAAAAAAAAAAAAAAAAAAAAAAAAAAAAAAAAAAAAAAAAAAAAAAAAAAAAAAAAAAAAAAAAAAAAAAAAAAAAAAAAAAAAAAAAAAAAAAAAAAAAAAAAAAAAAAAAAAAAAAAAAAAAAAAAAAAAAAAAAAAAAAAAAAAAAAAAAAAAAAAAAAAAAAAAAAAAAAAAAAAAAAAAAAAAAAAAAAAAAAAAAAAAAAAAAAAAAAAAAAAAAAAAAAAAAAAAAAAAAAAAAAAAAAAAAAAAAAAAAAAAAAAAAAAAAAAAAAAAAAAAAAAAAAAAAAAAAAAAAAAAAAAAAAAAAAAAAAAAAAAAAAAAAAAAAAAAAAAAAAAAAAAAAAAAAAAAAAAAAAAAAAAAAAAAAAAAAAAAAAAAAAAAAAAAAAAAAAAAAAAAAAAAAAAAAAAAAAAAAAAAAAAAAAAAAAAAAAAAAAAAAAAAAAAAAAAAAAAAAAAAAAAAAAAAAAAAAAAAAAAAAAAAAAAAAAAAAAAAAAAAAAAAAAAAAAAAAAAAAAAAAAAAAAAAAAAAAAAAAAAAAAAAAAAAAAAAAAAAAAAAAAAAAAAAAAAAAAAAAAAAAAAAAAAAAAAAAAAAAAAAAAAAAAAAAAAAAAAAAAAAAAAAAAAAAAAAAAAAAAAAAAAAAAAAAAAAAAAAAAAAAAAAAAAAAAAAAAAAAAAAAAAAAAAAAAAAAAAAAAAAAAAAAAAAAAAAAAAAAAAAAAAAAAAAAAAAAAAAAAAAAAAAAAAAAAAAAAAAAAAAAAAAAAAAAAAAAAAAAAAAAAAAAAAAAAAAAAAAAAAAAAAAAAAAAAAAAAAAAAAAAAAAAAAAAAAAAAAAAAAAAAAAAAAAAAAAAAAAAAAAAAAAAAAAAAAAAAAAAAAAAAAAAAAAAAAAAAAAAAAAAAAAAAAAAAAAAAAAAAAAAAAAAAAAAAAAAAAAAAAAAAAAAAAAAAAAAAAAAAAAAAAAAAAAAAAAAAAAAAAAAAAAAAAAAAAAAAAAAAAAAAAAAAAAAAAAAAAAAAAAAAAAAAAAAAAAAAAAAAAAAAAAAAAAAAAAAAAAAAAAAAAAAAAAAAAAAAAAAAAAAAAAAAAAAAAAAAAAAAAAAAAAAAAAAAAAAAAAAAAAAAAAAAAAAAAAAAAAAAAAAAAAAAAAAAAAAAAAAAAAAAAAAAAAAAAAAAAAAAAAAAAAAAAAAAAAAAAAAAAAAAAAAAAAAAAAAAAAAAAAAAAAAAAAAAAAAAAAAAAAAAAAAAAAAAAAAAAAAAAAAAAAAAAAAAAAAAAAAAAAAAAAAAAAAAAAAAAAAAAAAAAAAAAAAAAAAAAAAAAAAAAAAAAAAAAAAAAAAAAAAAAAAAAAAAAAAAAAAAAAAAAAAAAAAAAAAAAAAAAAAAAAAAAAAAAAAAAAAAAAAAAAAAAAAAAAAAAAAAAAAAAAAAAAAAAAAAAAAAAAAAAAAAAAAAAAAAAAAAAAAAAAAAAAAAAAAAAAAAAAAAAAAAAAAAAAAAAAAAAAAAAAAAAAAAAAAAAAAAAAAAAAAAAAAAAAAAAAAAAAAAAAAAAAAAAAAAAAAAAAAAAAAAAAAAAAAAAAAAAAAAAAAAAAAAAAAAAAAAAAAAAAAAAAAAAAAAAAAAAAAAAAAAAAAAAAAAAAAAAAAAAAAAAAAAAAAAAAAAAAAAAAAAAAAAAAAAAAAAAAAAAAAAAAAAAAAAAAAAAAAAAAAAAAAAAAAAAAAAAAAAAAAAAAAAAAAAAAAAAAAAAAAAAAAAAAAAAAAAAAAAAAAAAAAAAAAAAAAAAAAAAAAAAAAAAAAAAAAAAAAAAAAAAAAAAAAAAAAAAAAAAAAAAAAAAAAAAAAAAAAAAAAAAAAAAAAAAAAAAAAAAAAAAAAAAAAAAAAAAAAAAAAAAAAAAAAAAAAAAAAAAAAAAAAAAAAAAAAAAAAAAAAAAAAAAAAAAAAAAAAAAAAAAAAAAAAAAAAAAAAAAAAAAAAAAAAAAAAAAAAAAAAAAAAAAAAAAAAAAAAAAAAAAAAAAAAAAAAAAAAAAAAAAAAAAAAAAAAAAAAAAAAAAAAAAAAAAAAAAAAAAAAAAAAAAAAAAAAAAAAAAAAAAAAAAAAAAAAAAAAAAAAAAAAAAAAAAAAAAAAAAAAAAAAAAAAAAAAAAAAAAAAAAAAAAAAAAAAAAAAAAAAAAAAAAAAAAAAAAAAAAAAAAAAAAAAAAAAAAAAAAAAAAAAAAAAAAAAAAAAAAAAAAAAAAAAAAAAAAAAAAAAAAAAAAAAAAAAAAAAAAAAAAAAAAAAAAAAAAAAAAAAAAAAAAAAAAAAAAAAAAAAAAAAAAAAAAAAAAAAAAAAAAAAAAAAAAAAAAAAAAAAAAAAAAAAAAAAAAAAAAAAAAAAAAAAAAAAAAAAAAAAAAAAAAAAAAAAAAAAAAAAAAAAAAAAAAAAAAAAAAAAAAAAAAAAAAAAAAAAAAAAAAAAAAAAAAAAAAAAAAAAAAAAAAAAAAAAAAAAAAAAAAAAAAAAAAAAAAAAAAAAAAAAAAAAAAAAAAAAAAAAAAAAAAAAAAAAAAAAAAAAAAAAAAAAAAAAAAAAAAAAAAAAAAAAAAAAAAAAAAAAAAAAAAAAAAAAAAAAAAAAAAAAAAAAAAAAAAAAAAAAAAAAAAAAAAAAAAAAAAAAAAAAAAAAAAAAAAAAAAAAAAAAAAAAAAAAAAAAAAAAAAAAAAAAAAAAAAAAAAAAAAAAAAAAAAAAAAAAAAAAAAAAAAAAAAAAAAAAAAAAAAAAAAAAAAAAAAAAAAAAAAAAAAAAAAAAAAAAAAAAAAAAAAAAAAAAAAAAAAAAAAAAAAAAAAAAAAAAAAAAAAAAAAAAAAAAAAAAAAAAAAAAAAAAAAAAAAAAAAAAAAAAAAAAAAAAAAAAAAAAAAAAAAAAAAAAAAAAAAAAAAAAAAAAAAAAAAAAAAAAAAAAAAAAAAAAAAAAAAAAAAAAAAAAAAAAAAAAAAAAAAAAAAAAAAAAAAAAAAAAAAAAAAAAAAAAAAAAAAAAAAAAAAAAAAAAAAAAAAAAAAAAAAAAAAAAAAAAAAAAAAAAAAAAAAAAAAAAAAAAAAAAAAAAAAAAAAAAAAAAAAAAAAAAAAAAAAAAAAAAAAAAAAAAAAAAAAAAAAAAAAAAAAAAAAAAAAAAAAAAAAAAAAAAAAAAAAAAAAAAAAAAAAAAAAAAAAAAAAAAAAAAAAAAAAAAAAAAAAAAAAAAAAAAAAAAAAAAAAAAAAAAAAAAAAAAAAAAAAAAAAAAAAAAAAAAAAAAAAAAAAAAAAAAAAAAAAAAAAAAAAAAAAAAAAAAAAAAAAAAAAAAAAAAAAAAAAAAAAAAAAAAAAAAAAAAAAAAAAAAAAAAAAAAAAAAAAAAAAAAAAAAAAAAAAAAAAAAAAAAAAAAAAAAAAAAAAAAAAAAAAAAAAAAAAAAAAAAAAAAAAAAAAAAAAAAAAAAAAAAAAAAAAAAAAAAAAAAAAAAAAAAAAAAAAAAAAAAAAAAAAAAAAAAAAAAAAAAAAAAAAAAAAAAAAAAAAAAAAAAAAAAAAAAAAAAAAAAAAAAAAAAAAAAAAAAAAAAAAAAAAAAAAAAAAAAAAAAAAAAAAAAAAAAAAAAAAAAAAAAAAAAAAAAAAAAAAAAAAAAAAAAAAAAAAAAAAAAAAAAAAAAAAAAAAAAAAAAAAAAAAAAAAAAAAAAAAAAAAAAAAAAAAAAAAAAAAAAAAAAAAAAAAAAAAAAAAAAAAAAAAAAAAAAAAAAAAAAAAAAAAAAAAAAAAAAAAAAAAAAAAAAAAAAAAAAAAAAAAAAAAAAAAAAAAAAAAAAAAAAAAAAAAAAAAAAAAAAAAAAAAAAAAAAAAAAAAAAAAAAAAAAAAAAAAAAAAAAAAAAAAAAAAAAAAAAAAAAAAAAAAAAAAAAAAAAAAAPZYQAFp09psi0cmQQNkRqSbtVAMej3BuPsVDFCDayeEK6wHCtFjmizqCHON79QdpGEF3dUSMdeLsh3elvat7MNZCsc=</c2pa:manifest></metadata>
<defs>
  <linearGradient id="bg" x1="0" y1="0" x2="1" y2="1"><stop offset="0" stop-color="#1a1650"/><stop offset=".55" stop-color="#272264"/><stop offset="1" stop-color="#1a1650"/></linearGradient>
  <radialGradient id="glow1" cx="80%" cy="0%" r="70%"><stop offset="0" stop-color="#06b6d4" stop-opacity=".45"/><stop offset="1" stop-color="#06b6d4" stop-opacity="0"/></radialGradient>
  <radialGradient id="glow2" cx="5%" cy="110%" r="70%"><stop offset="0" stop-color="#6366f1" stop-opacity=".55"/><stop offset="1" stop-color="#6366f1" stop-opacity="0"/></radialGradient>
  <pattern id="dots" width="26" height="26" patternUnits="userSpaceOnUse"><circle cx="1" cy="1" r="1" fill="#fff" fill-opacity=".18"/></pattern>
  
</defs>
<rect width="640" height="400" fill="url(#bg)"/>
<rect width="640" height="400" fill="url(#glow1)"/><rect width="640" height="400" fill="url(#glow2)"/>
<rect width="640" height="400" fill="url(#dots)"/>
<path d="M80 320 L 80 80 M80 320 L 560 320" stroke="#8ea2ff" stroke-opacity=".5" stroke-width="1.5"/>
<circle cx="144" cy="122" r="4.9" fill="#22d3ee" fill-opacity=".8"/>
<circle cx="205" cy="172" r="4.0" fill="#22d3ee" fill-opacity=".8"/>
<circle cx="209" cy="113" r="5.0" fill="#22d3ee" fill-opacity=".8"/>
<circle cx="122" cy="124" r="4.5" fill="#22d3ee" fill-opacity=".8"/>
<circle cx="172" cy="134" r="2.6" fill="#22d3ee" fill-opacity=".8"/>
<circle cx="200" cy="167" r="2.8" fill="#22d3ee" fill-opacity=".8"/>
<circle cx="201" cy="124" r="4.4" fill="#22d3ee" fill-opacity=".8"/>
<circle cx="146" cy="124" r="4.0" fill="#22d3ee" fill-opacity=".8"/>
<circle cx="237" cy="151" r="4.7" fill="#22d3ee" fill-opacity=".8"/>
<circle cx="140" cy="149" r="4.5" fill="#22d3ee" fill-opacity=".8"/>
<circle cx="228" cy="166" r="3.3" fill="#22d3ee" fill-opacity=".8"/>
<circle cx="202" cy="159" r="4.7" fill="#22d3ee" fill-opacity=".8"/>
<circle cx="195" cy="188" r="5.4" fill="#22d3ee" fill-opacity=".8"/>
<circle cx="149" cy="151" r="3.9" fill="#22d3ee" fill-opacity=".8"/>
<circle cx="158" cy="113" r="4.4" fill="#22d3ee" fill-opacity=".8"/>
<circle cx="172" cy="142" r="2.9" fill="#22d3ee" fill-opacity=".8"/>
<circle cx="179" cy="190" r="3.4" fill="#22d3ee" fill-opacity=".8"/>
<circle cx="175" cy="148" r="2.7" fill="#22d3ee" fill-opacity=".8"/>
<circle cx="174" cy="186" r="4.6" fill="#22d3ee" fill-opacity=".8"/>
<circle cx="168" cy="132" r="4.0" fill="#22d3ee" fill-opacity=".8"/>
<circle cx="145" cy="156" r="2.9" fill="#22d3ee" fill-opacity=".8"/>
<circle cx="197" cy="140" r="5.4" fill="#22d3ee" fill-opacity=".8"/>
<circle cx="186" cy="148" r="3.9" fill="#22d3ee" fill-opacity=".8"/>
<circle cx="216" cy="93" r="3.8" fill="#22d3ee" fill-opacity=".8"/>
<circle cx="177" cy="166" r="5.3" fill="#22d3ee" fill-opacity=".8"/>
<circle cx="190" cy="181" r="2.9" fill="#22d3ee" fill-opacity=".8"/>
<circle cx="102" cy="141" r="2.9" fill="#22d3ee" fill-opacity=".8"/>
<circle cx="196" cy="124" r="5.2" fill="#22d3ee" fill-opacity=".8"/>
<circle cx="173" cy="133" r="5.2" fill="#22d3ee" fill-opacity=".8"/>
<circle cx="173" cy="150" r="2.5" fill="#22d3ee" fill-opacity=".8"/>
<circle cx="145" cy="151" r="3.4" fill="#22d3ee" fill-opacity=".8"/>
<circle cx="199" cy="167" r="3.4" fill="#22d3ee" fill-opacity=".8"/>
<circle cx="181" cy="149" r="4.8" fill="#22d3ee" fill-opacity=".8"/>
<circle cx="189" cy="140" r="5.3" fill="#22d3ee" fill-opacity=".8"/>
<circle cx="164" cy="100" r="3.4" fill="#22d3ee" fill-opacity=".8"/>
<circle cx="158" cy="167" r="5.5" fill="#22d3ee" fill-opacity=".8"/>
<circle cx="154" cy="138" r="3.8" fill="#22d3ee" fill-opacity=".8"/>
<circle cx="178" cy="157" r="2.8" fill="#22d3ee" fill-opacity=".8"/>
<circle cx="193" cy="133" r="5.3" fill="#22d3ee" fill-opacity=".8"/>
<circle cx="180" cy="169" r="4.0" fill="#22d3ee" fill-opacity=".8"/>
<circle cx="191" cy="172" r="5.4" fill="#22d3ee" fill-opacity=".8"/>
<circle cx="224" cy="121" r="4.4" fill="#22d3ee" fill-opacity=".8"/>
<circle cx="245" cy="120" r="4.1" fill="#22d3ee" fill-opacity=".8"/>
<circle cx="178" cy="142" r="4.7" fill="#22d3ee" fill-opacity=".8"/>
<circle cx="129" cy="162" r="4.4" fill="#22d3ee" fill-opacity=".8"/>
<ellipse cx="180" cy="150" rx="70" ry="52" fill="none" stroke="#22d3ee" stroke-opacity=".5" stroke-dasharray="4 4"/>
<circle cx="328" cy="257" r="5.3" fill="#a78bfa" fill-opacity=".8"/>
<circle cx="355" cy="269" r="3.5" fill="#a78bfa" fill-opacity=".8"/>
<circle cx="314" cy="288" r="5.4" fill="#a78bfa" fill-opacity=".8"/>
<circle cx="327" cy="285" r="3.4" fill="#a78bfa" fill-opacity=".8"/>
<circle cx="300" cy="242" r="3.0" fill="#a78bfa" fill-opacity=".8"/>
<circle cx="342" cy="264" r="5.2" fill="#a78bfa" fill-opacity=".8"/>
<circle cx="307" cy="250" r="5.2" fill="#a78bfa" fill-opacity=".8"/>
<circle cx="365" cy="249" r="2.9" fill="#a78bfa" fill-opacity=".8"/>
<circle cx="335" cy="260" r="3.5" fill="#a78bfa" fill-opacity=".8"/>
<circle cx="350" cy="260" r="3.3" fill="#a78bfa" fill-opacity=".8"/>
<circle cx="269" cy="229" r="4.7" fill="#a78bfa" fill-opacity=".8"/>
<circle cx="302" cy="263" r="4.1" fill="#a78bfa" fill-opacity=".8"/>
<circle cx="309" cy="265" r="2.7" fill="#a78bfa" fill-opacity=".8"/>
<circle cx="316" cy="312" r="2.9" fill="#a78bfa" fill-opacity=".8"/>
<circle cx="285" cy="249" r="5.1" fill="#a78bfa" fill-opacity=".8"/>
<circle cx="335" cy="269" r="3.2" fill="#a78bfa" fill-opacity=".8"/>
<circle cx="302" cy="265" r="5.4" fill="#a78bfa" fill-opacity=".8"/>
<circle cx="368" cy="210" r="2.6" fill="#a78bfa" fill-opacity=".8"/>
<circle cx="379" cy="258" r="5.2" fill="#a78bfa" fill-opacity=".8"/>
<circle cx="288" cy="255" r="2.5" fill="#a78bfa" fill-opacity=".8"/>
<circle cx="273" cy="285" r="5.0" fill="#a78bfa" fill-opacity=".8"/>
<circle cx="383" cy="199" r="3.2" fill="#a78bfa" fill-opacity=".8"/>
<circle cx="344" cy="259" r="4.1" fill="#a78bfa" fill-opacity=".8"/>
<circle cx="298" cy="198" r="4.7" fill="#a78bfa" fill-opacity=".8"/>
<circle cx="297" cy="217" r="3.9" fill="#a78bfa" fill-opacity=".8"/>
<circle cx="321" cy="248" r="4.8" fill="#a78bfa" fill-opacity=".8"/>
<circle cx="338" cy="304" r="4.4" fill="#a78bfa" fill-opacity=".8"/>
<circle cx="324" cy="262" r="3.3" fill="#a78bfa" fill-opacity=".8"/>
<circle cx="298" cy="222" r="2.8" fill="#a78bfa" fill-opacity=".8"/>
<circle cx="365" cy="263" r="4.2" fill="#a78bfa" fill-opacity=".8"/>
<circle cx="313" cy="261" r="4.3" fill="#a78bfa" fill-opacity=".8"/>
<circle cx="357" cy="251" r="3.9" fill="#a78bfa" fill-opacity=".8"/>
<circle cx="375" cy="241" r="5.2" fill="#a78bfa" fill-opacity=".8"/>
<circle cx="307" cy="253" r="3.2" fill="#a78bfa" fill-opacity=".8"/>
<circle cx="378" cy="241" r="3.4" fill="#a78bfa" fill-opacity=".8"/>
<circle cx="367" cy="254" r="4.5" fill="#a78bfa" fill-opacity=".8"/>
<circle cx="308" cy="259" r="4.5" fill="#a78bfa" fill-opacity=".8"/>
<circle cx="350" cy="242" r="2.6" fill="#a78bfa" fill-opacity=".8"/>
<circle cx="312" cy="271" r="4.5" fill="#a78bfa" fill-opacity=".8"/>
<circle cx="348" cy="291" r="4.7" fill="#a78bfa" fill-opacity=".8"/>
<circle cx="308" cy="250" r="5.4" fill="#a78bfa" fill-opacity=".8"/>
<circle cx="308" cy="291" r="3.2" fill="#a78bfa" fill-opacity=".8"/>
<circle cx="340" cy="290" r="3.4" fill="#a78bfa" fill-opacity=".8"/>
<circle cx="366" cy="242" r="3.1" fill="#a78bfa" fill-opacity=".8"/>
<circle cx="336" cy="275" r="4.5" fill="#a78bfa" fill-opacity=".8"/>
<ellipse cx="330" cy="250" rx="70" ry="52" fill="none" stroke="#a78bfa" stroke-opacity=".5" stroke-dasharray="4 4"/>
<circle cx="467" cy="136" r="3.7" fill="#fbbf24" fill-opacity=".8"/>
<circle cx="470" cy="203" r="2.9" fill="#fbbf24" fill-opacity=".8"/>
<circle cx="461" cy="143" r="3.7" fill="#fbbf24" fill-opacity=".8"/>
<circle cx="503" cy="110" r="4.7" fill="#fbbf24" fill-opacity=".8"/>
<circle cx="524" cy="139" r="3.5" fill="#fbbf24" fill-opacity=".8"/>
<circle cx="480" cy="192" r="4.7" fill="#fbbf24" fill-opacity=".8"/>
<circle cx="496" cy="147" r="3.6" fill="#fbbf24" fill-opacity=".8"/>
<circle cx="430" cy="155" r="3.0" fill="#fbbf24" fill-opacity=".8"/>
<circle cx="476" cy="140" r="3.6" fill="#fbbf24" fill-opacity=".8"/>
<circle cx="466" cy="137" r="5.4" fill="#fbbf24" fill-opacity=".8"/>
<circle cx="458" cy="162" r="5.0" fill="#fbbf24" fill-opacity=".8"/>
<circle cx="465" cy="117" r="2.6" fill="#fbbf24" fill-opacity=".8"/>
<circle cx="420" cy="144" r="5.3" fill="#fbbf24" fill-opacity=".8"/>
<circle cx="461" cy="161" r="5.2" fill="#fbbf24" fill-opacity=".8"/>
<circle cx="482" cy="145" r="4.9" fill="#fbbf24" fill-opacity=".8"/>
<circle cx="451" cy="133" r="2.6" fill="#fbbf24" fill-opacity=".8"/>
<circle cx="516" cy="161" r="3.3" fill="#fbbf24" fill-opacity=".8"/>
<circle cx="449" cy="89" r="3.5" fill="#fbbf24" fill-opacity=".8"/>
<circle cx="439" cy="200" r="4.4" fill="#fbbf24" fill-opacity=".8"/>
<circle cx="446" cy="178" r="3.4" fill="#fbbf24" fill-opacity=".8"/>
<circle cx="450" cy="142" r="4.8" fill="#fbbf24" fill-opacity=".8"/>
<circle cx="489" cy="123" r="5.3" fill="#fbbf24" fill-opacity=".8"/>
<circle cx="473" cy="143" r="3.9" fill="#fbbf24" fill-opacity=".8"/>
<circle cx="526" cy="124" r="3.7" fill="#fbbf24" fill-opacity=".8"/>
<circle cx="450" cy="165" r="4.0" fill="#fbbf24" fill-opacity=".8"/>
<circle cx="468" cy="133" r="4.9" fill="#fbbf24" fill-opacity=".8"/>
<circle cx="446" cy="95" r="4.8" fill="#fbbf24" fill-opacity=".8"/>
<circle cx="428" cy="127" r="3.5" fill="#fbbf24" fill-opacity=".8"/>
<circle cx="414" cy="172" r="2.7" fill="#fbbf24" fill-opacity=".8"/>
<circle cx="467" cy="178" r="3.2" fill="#fbbf24" fill-opacity=".8"/>
<circle cx="458" cy="142" r="4.2" fill="#fbbf24" fill-opacity=".8"/>
<circle cx="409" cy="200" r="5.2" fill="#fbbf24" fill-opacity=".8"/>
<circle cx="475" cy="139" r="2.8" fill="#fbbf24" fill-opacity=".8"/>
<circle cx="481" cy="156" r="4.6" fill="#fbbf24" fill-opacity=".8"/>
<circle cx="428" cy="146" r="3.8" fill="#fbbf24" fill-opacity=".8"/>
<circle cx="415" cy="115" r="4.7" fill="#fbbf24" fill-opacity=".8"/>
<circle cx="477" cy="111" r="2.9" fill="#fbbf24" fill-opacity=".8"/>
<circle cx="464" cy="123" r="4.2" fill="#fbbf24" fill-opacity=".8"/>
<circle cx="413" cy="168" r="3.1" fill="#fbbf24" fill-opacity=".8"/>
<circle cx="450" cy="158" r="3.0" fill="#fbbf24" fill-opacity=".8"/>
<circle cx="481" cy="119" r="3.5" fill="#fbbf24" fill-opacity=".8"/>
<circle cx="371" cy="186" r="4.0" fill="#fbbf24" fill-opacity=".8"/>
<circle cx="457" cy="183" r="4.5" fill="#fbbf24" fill-opacity=".8"/>
<circle cx="465" cy="139" r="3.9" fill="#fbbf24" fill-opacity=".8"/>
<circle cx="476" cy="98" r="5.2" fill="#fbbf24" fill-opacity=".8"/>
<ellipse cx="450" cy="140" rx="70" ry="52" fill="none" stroke="#fbbf24" stroke-opacity=".5" stroke-dasharray="4 4"/>
<circle cx="286" cy="295" r="2.9" fill="#f472b6" fill-opacity=".8"/>
<circle cx="292" cy="350" r="4.2" fill="#f472b6" fill-opacity=".8"/>
<circle cx="288" cy="280" r="5.1" fill="#f472b6" fill-opacity=".8"/>
<circle cx="236" cy="296" r="4.8" fill="#f472b6" fill-opacity=".8"/>
<circle cx="274" cy="286" r="4.3" fill="#f472b6" fill-opacity=".8"/>
<circle cx="244" cy="278" r="3.6" fill="#f472b6" fill-opacity=".8"/>
<circle cx="274" cy="303" r="3.3" fill="#f472b6" fill-opacity=".8"/>
<circle cx="222" cy="270" r="3.1" fill="#f472b6" fill-opacity=".8"/>
<circle cx="288" cy="292" r="4.5" fill="#f472b6" fill-opacity=".8"/>
<circle cx="271" cy="309" r="3.1" fill="#f472b6" fill-opacity=".8"/>
<circle cx="271" cy="261" r="2.7" fill="#f472b6" fill-opacity=".8"/>
<circle cx="286" cy="304" r="4.2" fill="#f472b6" fill-opacity=".8"/>
<circle cx="251" cy="282" r="3.0" fill="#f472b6" fill-opacity=".8"/>
<circle cx="249" cy="267" r="3.3" fill="#f472b6" fill-opacity=".8"/>
<circle cx="232" cy="346" r="3.4" fill="#f472b6" fill-opacity=".8"/>
<circle cx="233" cy="281" r="3.7" fill="#f472b6" fill-opacity=".8"/>
<circle cx="331" cy="229" r="3.6" fill="#f472b6" fill-opacity=".8"/>
<circle cx="277" cy="327" r="3.1" fill="#f472b6" fill-opacity=".8"/>
<circle cx="329" cy="292" r="3.8" fill="#f472b6" fill-opacity=".8"/>
<circle cx="274" cy="268" r="5.1" fill="#f472b6" fill-opacity=".8"/>
<circle cx="242" cy="293" r="2.5" fill="#f472b6" fill-opacity=".8"/>
<circle cx="217" cy="279" r="5.2" fill="#f472b6" fill-opacity=".8"/>
<circle cx="298" cy="308" r="3.6" fill="#f472b6" fill-opacity=".8"/>
<circle cx="242" cy="290" r="3.3" fill="#f472b6" fill-opacity=".8"/>
<circle cx="188" cy="283" r="2.8" fill="#f472b6" fill-opacity=".8"/>
<circle cx="202" cy="293" r="5.4" fill="#f472b6" fill-opacity=".8"/>
<circle cx="265" cy="302" r="5.3" fill="#f472b6" fill-opacity=".8"/>
<circle cx="296" cy="286" r="2.7" fill="#f472b6" fill-opacity=".8"/>
<circle cx="288" cy="279" r="5.2" fill="#f472b6" fill-opacity=".8"/>
<circle cx="217" cy="259" r="3.0" fill="#f472b6" fill-opacity=".8"/>
<circle cx="265" cy="273" r="3.7" fill="#f472b6" fill-opacity=".8"/>
<circle cx="294" cy="253" r="3.0" fill="#f472b6" fill-opacity=".8"/>
<circle cx="266" cy="314" r="4.1" fill="#f472b6" fill-opacity=".8"/>
<circle cx="248" cy="298" r="3.2" fill="#f472b6" fill-opacity=".8"/>
<circle cx="249" cy="239" r="2.6" fill="#f472b6" fill-opacity=".8"/>
<circle cx="210" cy="275" r="2.6" fill="#f472b6" fill-opacity=".8"/>
<circle cx="268" cy="280" r="4.3" fill="#f472b6" fill-opacity=".8"/>
<circle cx="217" cy="280" r="3.4" fill="#f472b6" fill-opacity=".8"/>
<circle cx="223" cy="305" r="3.8" fill="#f472b6" fill-opacity=".8"/>
<circle cx="241" cy="268" r="3.8" fill="#f472b6" fill-opacity=".8"/>
<circle cx="304" cy="295" r="4.0" fill="#f472b6" fill-opacity=".8"/>
<circle cx="265" cy="331" r="4.8" fill="#f472b6" fill-opacity=".8"/>
<circle cx="241" cy="294" r="3.9" fill="#f472b6" fill-opacity=".8"/>
<circle cx="273" cy="298" r="3.8" fill="#f472b6" fill-opacity=".8"/>
<circle cx="289" cy="304" r="4.0" fill="#f472b6" fill-opacity=".8"/>
<ellipse cx="260" cy="290" rx="70" ry="52" fill="none" stroke="#f472b6" stroke-opacity=".5" stroke-dasharray="4 4"/>
<text x="30" y="46" fill="#7fe9f2" font-family="Inter, Arial" font-size="13" font-weight="700" letter-spacing="2">INTERACTIVE VISUALIZATION SPACE</text>
</svg>